<?xml version="1.0" encoding="UTF-8"?><svg xmlns="http://www.w3.org/2000/svg" viewBox="0 0 168.14 41.66"><defs><style>.cls-1{fill:#fff;}.cls-2{fill:#fa811d;}.cls-3{isolation:isolate;}.cls-4{fill:#02a8ff;}.cls-5{fill:#d05af1;}.cls-6{fill:#8b41d3;}.cls-7{fill:#c83316;}.cls-8{fill:#f84616;}.cls-9{fill:#008560;}.cls-10{fill:#027dff;}.cls-11{fill:#370d32;mix-blend-mode:multiply;opacity:.2;}.cls-12{fill:#fad01d;}.cls-13{fill:#05b178;}</style></defs><g class="cls-3"><g id="Layer_2"><g id="BACKGROUND"><g><path class="cls-1" d="M67.37,26.91v5.73h-18.05V8.65h18.05v5.54h-10.83v3.48h8.75v5.33h-8.75v3.92h10.83Z"/><path class="cls-1" d="M87.77,14.77l-6.55,17.88h-5.24l-6.7-17.88h7.21l2.56,7.59c.21,.62,.4,1.24,.56,1.85,.06-.21,.15-.48,.26-.81,.02-.05,.1-.27,.23-.67l2.63-7.96h5.04Z"/><path class="cls-1" d="M101.98,26.23l6.54,.44c-.39,1.76-1.37,3.25-2.96,4.49-1.59,1.24-3.74,1.85-6.44,1.85-3.01,0-5.41-.87-7.21-2.61-1.79-1.74-2.69-3.9-2.69-6.48s.88-4.93,2.65-6.77c1.77-1.84,4.13-2.76,7.08-2.76s5.17,.87,6.93,2.6c1.76,1.73,2.65,4.1,2.65,7.08,0,.25,0,.59-.02,1.02h-11.97c.02,1.12,.22,1.96,.6,2.5,.37,.54,1.09,.82,2.14,.82,1.52,0,2.42-.73,2.69-2.2Zm-.47-4.64c-.01-1.21-.25-2.02-.73-2.43-.47-.42-1.06-.62-1.76-.62-1.66,0-2.49,1.02-2.49,3.06h4.97Z"/><path class="cls-1" d="M129.96,32.64h-7.01v-11.25c0-.93-.14-1.52-.43-1.78-.29-.26-.65-.39-1.08-.39-1.28,0-1.92,.89-1.92,2.67v10.74h-7.01V14.77h6.5v2.53c.96-1.93,2.68-2.9,5.15-2.9,1.3,0,2.4,.25,3.3,.75s1.54,1.14,1.92,1.93c.39,.79,.58,2.17,.58,4.12v11.44Z"/><path class="cls-1" d="M145.91,14.77v4.55h-3.57v6.59c0,.9,.17,1.44,.51,1.61,.34,.17,.69,.25,1.05,.25,.56,0,1.23-.1,2-.3v4.99c-1.38,.27-2.74,.4-4.08,.4-2.16,0-3.74-.46-4.75-1.39-1.01-.93-1.52-2.4-1.52-4.43l.02-2.09v-5.64h-2.67v-4.55h2.67l.11-5.82,6.66-.11v5.92h3.57Z"/><path class="cls-1" d="M158.21,33.01c-2.96,0-5.32-.92-7.07-2.77-1.75-1.85-2.62-4.01-2.62-6.49,0-2.67,.91-4.9,2.73-6.68,1.82-1.78,4.19-2.67,7.11-2.67s5.31,.88,7.09,2.64c1.79,1.76,2.68,3.96,2.68,6.61s-.91,4.9-2.72,6.69c-1.81,1.79-4.22,2.68-7.22,2.68Zm.11-4.25c1.09,0,1.75-.57,1.99-1.7,.24-1.13,.36-2.31,.36-3.54,0-1.68-.17-2.88-.51-3.62-.34-.74-.95-1.11-1.83-1.11-.81,0-1.4,.38-1.78,1.14-.38,.76-.56,2.02-.56,3.76,0,2.05,.19,3.41,.58,4.07s.97,.99,1.74,.99Z"/></g></g><g id="OBJECTS"><g><g><path class="cls-7" d="M31.45,15.89c-.42,2.69-2.08,4.87-4.31,6.05-1.76-1.81-2.68-4.39-2.26-7.08,.42-2.69,2.08-4.87,4.31-6.05,1.76,1.81,2.68,4.39,2.26,7.08Z"/><path class="cls-11" d="M31.45,15.89c.14-.91,.13-1.81-.02-2.67-.77,.41-1.49,.94-2.13,1.61-1.87,1.97-2.59,4.62-2.17,7.11,2.23-1.18,3.89-3.37,4.31-6.05Z"/><path class="cls-8" d="M35.71,21.23c-2.69,1.64-5.86,1.8-8.57,.71,.28-2.91,1.88-5.65,4.57-7.29,2.69-1.64,5.86-1.8,8.57-.71-.28,2.91-1.88,5.65-4.57,7.29Z"/><path class="cls-8" d="M34.85,12.53c-.71,.43-1.54,.47-2.25,.19,.07-.76,.49-1.49,1.2-1.92,.71-.43,1.54-.47,2.25-.19-.07,.76-.49,1.49-1.2,1.92Z"/><path class="cls-8" d="M36.82,24.19c-.82,.07-1.59-.27-2.1-.84,.41-.65,1.11-1.11,1.93-1.18s1.59,.27,2.1,.84c-.41,.65-1.11,1.11-1.93,1.18Z"/><path class="cls-8" d="M34.17,8.25c-.24,1.06-.96,1.89-1.88,2.31-.66-.77-.96-1.82-.73-2.89,.24-1.06,.96-1.89,1.88-2.31,.66,.77,.96,1.82,.73,2.89Z"/></g><g><path class="cls-2" d="M28.81,30.09c-2.68,.43-5.27-.48-7.09-2.23,1.17-2.23,3.35-3.91,6.04-4.34,2.68-.43,5.27,.48,7.09,2.23-1.17,2.23-3.35,3.91-6.04,4.34Z"/><path class="cls-11" d="M28.81,30.09c.91-.15,1.76-.44,2.53-.84-.63-.61-1.36-1.13-2.19-1.52-2.45-1.17-5.19-1.04-7.43,.13,1.81,1.75,4.4,2.66,7.09,2.23Z"/><path class="cls-12" d="M25.05,35.79c-2.39-2.05-3.52-5.02-3.33-7.93,2.85-.63,5.96,.04,8.34,2.09,2.39,2.05,3.52,5.02,3.33,7.93-2.85,.63-5.96-.04-8.34-2.09Z"/><path class="cls-12" d="M33.06,32.28c-.63-.54-.93-1.32-.87-2.09,.75-.17,1.57,.01,2.19,.55,.63,.54,.93,1.32,.87,2.09-.75,.17-1.57-.01-2.19-.55Z"/><path class="cls-12" d="M22.58,37.76c-.32-.76-.24-1.59,.15-2.26,.75,.19,1.4,.71,1.72,1.47,.32,.76,.24,1.59-.15,2.26-.75-.19-1.4-.71-1.72-1.47Z"/><path class="cls-12" d="M36.92,30.31c-1.08,.1-2.1-.32-2.78-1.07,.53-.86,1.44-1.48,2.52-1.58s2.1,.32,2.78,1.07c-.53,.86-1.44,1.48-2.52,1.58Z"/></g><g><path class="cls-9" d="M14.49,31.96c-1.24-2.42-1.18-5.16-.07-7.43,2.49,.43,4.75,1.98,5.99,4.4,1.24,2.42,1.18,5.16,.07,7.43-2.49-.43-4.75-1.98-5.99-4.4Z"/><path class="cls-11" d="M14.49,31.96c.42,.82,.96,1.54,1.58,2.15,.38-.78,.65-1.64,.77-2.55,.36-2.7-.62-5.26-2.42-7.03-1.11,2.27-1.17,5.01,.07,7.43Z"/><path class="cls-13" d="M7.91,30.15c1.21-2.9,3.68-4.9,6.52-5.62,1.48,2.52,1.8,5.68,.59,8.58-1.21,2.9-3.68,4.9-6.52,5.62-1.48-2.52-1.8-5.68-.59-8.58Z"/><path class="cls-13" d="M13.72,36.68c.32-.76,.97-1.29,1.71-1.48,.39,.66,.47,1.49,.16,2.26-.32,.76-.97,1.29-1.71,1.48-.39-.66-.47-1.49-.16-2.26Z"/><path class="cls-13" d="M5.27,28.41c.63-.54,1.44-.72,2.19-.55,.05,.77-.24,1.55-.87,2.09-.63,.54-1.44,.72-2.19,.55-.05-.77,.24-1.55,.87-2.09Z"/><path class="cls-13" d="M16.79,39.75c-.43-1-.34-2.09,.16-2.97,.98,.23,1.85,.91,2.28,1.91,.43,1,.34,2.09-.16,2.97-.98-.23-1.85-.91-2.28-1.91Z"/></g><g><path class="cls-6" d="M8.29,18.93c1.92-1.93,4.55-2.71,7.05-2.36,.36,2.5-.41,5.13-2.33,7.06-1.92,1.93-4.55,2.71-7.05,2.36-.36-2.5,.41-5.13,2.33-7.06Z"/><path class="cls-11" d="M8.29,18.93c-.65,.65-1.17,1.39-1.55,2.17,.86,.12,1.76,.11,2.67-.05,2.67-.49,4.81-2.21,5.93-4.48-2.5-.35-5.13,.43-7.05,2.36Z"/><path class="cls-5" d="M7.98,12.1c3.14,.26,5.8,1.99,7.35,4.46-1.94,2.19-4.84,3.47-7.98,3.21-3.14-.26-5.8-1.99-7.35-4.46,1.94-2.19,4.84-3.47,7.98-3.21Z"/><path class="cls-5" d="M3.56,19.65c.82,.07,1.52,.52,1.93,1.17-.51,.58-1.27,.91-2.1,.85-.82-.07-1.52-.52-1.93-1.17,.51-.58,1.27-.91,2.1-.85Z"/><path class="cls-5" d="M8.82,9.06c.71,.43,1.13,1.15,1.2,1.91-.71,.29-1.55,.25-2.25-.18-.71-.43-1.13-1.15-1.2-1.91,.71-.29,1.55-.25,2.25,.18Z"/><path class="cls-5" d="M1.59,23.51c.82-.72,1.89-.97,2.88-.77,.08,1.01-.29,2.04-1.11,2.76-.82,.72-1.89,.97-2.88,.77-.08-1.01,.29-2.04,1.11-2.76Z"/></g><g><path class="cls-10" d="M18.77,9c2.42,1.23,3.99,3.49,4.42,5.97-2.26,1.12-5.01,1.19-7.43-.04-2.42-1.23-3.99-3.49-4.42-5.97,2.26-1.12,5.01-1.19,7.43,.04Z"/><path class="cls-11" d="M18.77,9c-.82-.42-1.68-.68-2.54-.81,.15,.86,.44,1.71,.88,2.52,1.29,2.39,3.59,3.89,6.09,4.26-.44-2.49-2-4.74-4.42-5.97Z"/><path class="cls-4" d="M25.16,6.6c.73,3.06-.1,6.13-1.97,8.37-2.68-1.17-4.8-3.53-5.52-6.6-.73-3.06,.1-6.13,1.97-8.37,2.68,1.17,4.8,3.53,5.52,6.6Z"/><path class="cls-4" d="M16.62,4.72c.19,.8-.03,1.61-.52,2.2-.7-.31-1.26-.93-1.45-1.73-.19-.8,.03-1.61,.52-2.2,.7,.31,1.26,.93,1.45,1.73Z"/><path class="cls-4" d="M28.31,6.45c-.19,.81-.74,1.43-1.45,1.74-.49-.59-.71-1.4-.52-2.2,.19-.81,.74-1.43,1.45-1.74,.49,.59,.71,1.4,.52,2.2Z"/><path class="cls-4" d="M12.33,4.04c.94,.55,1.51,1.49,1.62,2.5-.93,.39-2.03,.35-2.97-.2s-1.51-1.49-1.62-2.5c.93-.39,2.03-.35,2.97,.2Z"/></g></g></g></g></g></svg>